<svg width="17" height="19" viewBox="0 0 17 19" fill="none" xmlns="http://www.w3.org/2000/svg">
<g clip-path="url(#clip0_95_117)">
<path d="M3.27857 0.204102L2.34509 1.76641C2.20089 2.00762 2.125 2.28594 2.125 2.56797V2.67188C2.125 3.49199 2.80424 4.15625 3.64286 4.15625C4.48147 4.15625 5.16071 3.49199 5.16071 2.67188V2.56797C5.16071 2.28594 5.08482 2.01133 4.94063 1.76641L4.00714 0.204102C3.93125 0.0779297 3.79464 0 3.64286 0C3.49107 0 3.35446 0.0779297 3.27857 0.204102ZM8.13571 0.204102L7.20223 1.76641C7.05804 2.00762 6.98214 2.28594 6.98214 2.56797V2.67188C6.98214 3.49199 7.66138 4.15625 8.5 4.15625C9.33862 4.15625 10.0179 3.49199 10.0179 2.67188V2.56797C10.0179 2.28594 9.94197 2.01133 9.79777 1.76641L8.86429 0.204102C8.78839 0.0779297 8.65179 0 8.5 0C8.34821 0 8.21161 0.0779297 8.13571 0.204102ZM12.0594 1.76641C11.9152 2.00762 11.8393 2.28594 11.8393 2.56797V2.67188C11.8393 3.49199 12.5185 4.15625 13.3571 4.15625C14.1958 4.15625 14.875 3.49199 14.875 2.67188V2.56797C14.875 2.28594 14.7991 2.01133 14.6549 1.76641L13.7214 0.204102C13.6455 0.0779297 13.5089 0 13.3571 0C13.2054 0 13.0688 0.0779297 12.9929 0.204102L12.0594 1.76641ZM4.85714 6.53125C4.85714 5.87441 4.31451 5.34375 3.64286 5.34375C2.97121 5.34375 2.42857 5.87441 2.42857 6.53125V8.3125C1.08906 8.3125 0 9.37754 0 10.6875V13.3223C0.314955 13.5152 0.68683 13.6562 1.09286 13.6562C1.60513 13.6562 2.125 13.4299 2.55 13.159C2.75491 13.0291 2.92567 12.8955 3.0433 12.799C3.10022 12.7508 3.14576 12.71 3.17612 12.684C3.19129 12.6691 3.20268 12.6617 3.20647 12.6543L3.21027 12.6506C3.3279 12.5318 3.49107 12.4688 3.66183 12.4725C3.83259 12.4762 3.98817 12.5504 4.10201 12.6729L4.1058 12.6766C4.1096 12.6803 4.12098 12.6914 4.13237 12.7025C4.15893 12.7285 4.19688 12.7656 4.25 12.8139C4.35625 12.9104 4.50804 13.0402 4.69777 13.1664C5.08482 13.4299 5.57054 13.6525 6.07522 13.6525C6.57991 13.6525 7.06562 13.4299 7.45268 13.1664C7.64241 13.0365 7.7942 12.9104 7.90045 12.8139C7.95357 12.7656 7.99152 12.7285 8.01808 12.7025C8.02946 12.6914 8.04085 12.6803 8.04464 12.6766L8.04844 12.6729C8.16228 12.543 8.32924 12.4725 8.50379 12.4725C8.67835 12.4725 8.84531 12.5467 8.95915 12.6729L8.96295 12.6766C8.96674 12.6803 8.97812 12.6914 8.98951 12.7025C9.01607 12.7285 9.05402 12.7656 9.10714 12.8139C9.21339 12.9104 9.36518 13.0402 9.55491 13.1664C9.94196 13.4299 10.4277 13.6525 10.9324 13.6525C11.4371 13.6525 11.9228 13.4299 12.3098 13.1664C12.4996 13.0365 12.6513 12.9104 12.7576 12.8139C12.8107 12.7656 12.8487 12.7285 12.8752 12.7025C12.8866 12.6914 12.898 12.6803 12.9018 12.6766L12.9056 12.6729C13.0156 12.5467 13.175 12.4762 13.3458 12.4725C13.5165 12.4688 13.6759 12.5318 13.7973 12.6506L13.8011 12.6543C13.8087 12.6617 13.8163 12.6691 13.8315 12.684C13.8618 12.71 13.9036 12.7508 13.9643 12.799C14.0819 12.8955 14.2489 13.0291 14.4576 13.159C14.8826 13.4299 15.4025 13.6562 15.9147 13.6562C16.3208 13.6562 16.6926 13.5115 17.0076 13.3223V10.6875C17.0076 9.37754 15.9185 8.3125 14.579 8.3125V6.53125C14.579 5.87441 14.0364 5.34375 13.3647 5.34375C12.6931 5.34375 12.1504 5.87441 12.1504 6.53125V8.3125H9.72188V6.53125C9.72188 5.87441 9.17924 5.34375 8.50759 5.34375C7.83594 5.34375 7.2933 5.87441 7.2933 6.53125V8.3125H4.86473V6.53125H4.85714ZM17 14.6434C16.6775 14.7658 16.3094 14.8438 15.9071 14.8438C15.0533 14.8438 14.2982 14.4764 13.7897 14.1535C13.6342 14.0533 13.4938 13.9531 13.3761 13.8641C13.2699 13.9531 13.1446 14.0496 13.0042 14.1424C12.5147 14.4727 11.7862 14.8438 10.9286 14.8438C10.071 14.8438 9.34241 14.4727 8.8567 14.1424C8.72388 14.0533 8.60246 13.9605 8.5 13.8752C8.39754 13.9605 8.27612 14.0496 8.1433 14.1424C7.65759 14.4727 6.92902 14.8438 6.07143 14.8438C5.21384 14.8438 4.48527 14.4727 3.99955 14.1424C3.85915 14.0459 3.73393 13.9494 3.62768 13.8641C3.51004 13.9531 3.36964 14.0533 3.21406 14.1535C2.70179 14.4764 1.94665 14.8438 1.09286 14.8438C0.690625 14.8438 0.322545 14.7621 0 14.6434V17.8125C0 18.4693 0.542634 19 1.21429 19H15.7857C16.4574 19 17 18.4693 17 17.8125V14.6434Z" fill="white"/>
</g>
<defs>
<clipPath id="clip0_95_117">
<rect width="17" height="19" fill="white"/>
</clipPath>
</defs>
</svg>
