<svg width="16" height="19" viewBox="0 0 16 19" fill="none" xmlns="http://www.w3.org/2000/svg">
<g clip-path="url(#clip0_156_114)">
<path d="M8.00332 5.23257C5.73189 5.23257 3.89975 7.13628 3.89975 9.49644C3.89975 11.8566 5.73189 13.7603 8.00332 13.7603C10.2747 13.7603 12.1069 11.8566 12.1069 9.49644C12.1069 7.13628 10.2747 5.23257 8.00332 5.23257ZM8.00332 12.2685C6.53546 12.2685 5.33546 11.0253 5.33546 9.49644C5.33546 7.96753 6.53189 6.72437 8.00332 6.72437C9.47475 6.72437 10.6712 7.96753 10.6712 9.49644C10.6712 11.0253 9.47118 12.2685 8.00332 12.2685ZM13.2319 5.05815C13.2319 5.61108 12.8033 6.05269 12.2747 6.05269C11.7426 6.05269 11.3176 5.60737 11.3176 5.05815C11.3176 4.50894 11.7462 4.06362 12.2747 4.06362C12.8033 4.06362 13.2319 4.50894 13.2319 5.05815ZM15.9497 6.06753C15.889 4.7353 15.5962 3.55522 14.6569 2.58296C13.7212 1.61069 12.5855 1.3064 11.3033 1.2396C9.98189 1.16167 6.02118 1.16167 4.69975 1.2396C3.42118 1.30269 2.28546 1.60698 1.34618 2.57925C0.406892 3.55151 0.117606 4.73159 0.0533203 6.06382C-0.0216797 7.43687 -0.0216797 11.5523 0.0533203 12.9253C0.114035 14.2576 0.406892 15.4376 1.34618 16.4099C2.28546 17.3822 3.41761 17.6865 4.69975 17.7533C6.02118 17.8312 9.98189 17.8312 11.3033 17.7533C12.5855 17.6902 13.7212 17.3859 14.6569 16.4099C15.5926 15.4376 15.8855 14.2576 15.9497 12.9253C16.0247 11.5523 16.0247 7.44058 15.9497 6.06753ZM14.2426 14.3986C13.964 15.1259 13.4247 15.6863 12.7212 15.9794C11.6676 16.4136 9.16761 16.3134 8.00332 16.3134C6.83903 16.3134 4.33546 16.4099 3.28546 15.9794C2.58546 15.69 2.04618 15.1296 1.76403 14.3986C1.34618 13.3039 1.44261 10.7062 1.44261 9.49644C1.44261 8.28667 1.34975 5.6853 1.76403 4.59429C2.04261 3.86694 2.58189 3.30659 3.28546 3.01343C4.33903 2.57925 6.83903 2.67944 8.00332 2.67944C9.16761 2.67944 11.6712 2.58296 12.7212 3.01343C13.4212 3.30288 13.9605 3.86323 14.2426 4.59429C14.6605 5.68901 14.564 8.28667 14.564 9.49644C14.564 10.7062 14.6605 13.3076 14.2426 14.3986Z" fill="#0C0C0C"/>
</g>
<defs>
<clipPath id="clip0_156_114">
<rect width="16" height="19" fill="white"/>
</clipPath>
</defs>
</svg>
