<svg width="17" height="19" viewBox="0 0 17 19" fill="none" xmlns="http://www.w3.org/2000/svg"><g clip-path="url(#clip0_95_117)"><path d="M3.279.204l-.934 1.562c-.144.242-.22.52-.22.802v.104c0 .82.68 1.484 1.518 1.484S5.16 3.492 5.16 2.672v-.104c0-.282-.076-.557-.22-.802L4.007.204A.422.422 0 003.643 0a.422.422 0 00-.364.204zm4.857 0l-.934 1.562c-.144.242-.22.52-.22.802v.104c0 .82.68 1.484 1.518 1.484.839 0 1.518-.664 1.518-1.484v-.104c0-.282-.076-.557-.22-.802L8.864.204A.423.423 0 008.5 0a.423.423 0 00-.364.204zm3.923 1.562c-.144.242-.22.52-.22.802v.104c0 .82.68 1.484 1.518 1.484.839 0 1.518-.664 1.518-1.484v-.104c0-.282-.076-.557-.22-.802L13.72.204A.423.423 0 0013.357 0a.422.422 0 00-.364.204l-.934 1.562zM4.857 6.531a1.2 1.2 0 00-1.214-1.187A1.2 1.2 0 002.429 6.53v1.782C1.089 8.313 0 9.377 0 10.687v2.635a2.1 2.1 0 001.093.334c.512 0 1.032-.226 1.457-.497.205-.13.376-.264.493-.36l.133-.115c.015-.015.027-.022.03-.03l.004-.003a.617.617 0 01.892.022l.004.004.026.026a4.115 4.115 0 00.566.463c.387.264.873.486 1.377.486.505 0 .99-.222 1.378-.486a4.213 4.213 0 00.565-.463c.011-.012.023-.023.027-.026l.003-.004c.114-.13.281-.2.456-.2.174 0 .341.074.455.2l.004.004a54.85 54.85 0 00.144.137c.106.096.258.226.448.352.387.264.873.486 1.377.486.505 0 .99-.222 1.378-.486a4.212 4.212 0 00.565-.463l.027-.026.004-.004a.62.62 0 01.892-.022l.003.003.03.03c.03.026.073.067.133.115.118.097.285.23.494.36.425.27.944.497 1.457.497.406 0 .778-.145 1.093-.334v-2.634c0-1.31-1.09-2.376-2.429-2.376v-1.78a1.2 1.2 0 00-1.214-1.188A1.2 1.2 0 0012.15 6.53v1.782H9.722V6.53a1.2 1.2 0 00-1.214-1.187A1.2 1.2 0 007.293 6.53v1.782H4.865V6.53h-.008zM17 14.643c-.323.123-.69.2-1.093.2-.854 0-1.609-.367-2.117-.69a6.78 6.78 0 01-.414-.289 4.116 4.116 0 01-.372.278c-.49.33-1.218.702-2.075.702-.858 0-1.587-.371-2.072-.702a4.361 4.361 0 01-.357-.267 5.417 5.417 0 01-.357.267c-.485.33-1.214.702-2.072.702-.857 0-1.586-.371-2.071-.702a6.24 6.24 0 01-.372-.278c-.118.09-.258.19-.414.29-.512.322-1.267.69-2.121.69-.402 0-.77-.082-1.093-.2v3.168A1.2 1.2 0 001.214 19h14.572A1.2 1.2 0 0017 17.812v-3.169z" fill="#fff"/></g><defs><clipPath id="clip0_95_117"><path fill="#fff" d="M0 0h17v19H0z"/></clipPath></defs></svg>