<svg width="16" height="16" viewBox="0 0 16 16" fill="none" xmlns="http://www.w3.org/2000/svg"><g clip-path="url(#clip0_156_122)"><path d="M16 8a8 8 0 00-8-8 8 8 0 00-8 8c0 3.75 2.584 6.9 6.069 7.766v-5.322h-1.65V8h1.65V6.947c0-2.722 1.231-3.985 3.906-3.985.506 0 1.381.1 1.74.2v2.213a10.54 10.54 0 00-.924-.031c-1.313 0-1.82.497-1.82 1.787V8h2.613l-.45 2.444H8.97v5.497A7.999 7.999 0 0016 8z" fill="#0C0C0C"/></g><defs><clipPath id="clip0_156_122"><path fill="#fff" d="M0 0h16v16H0z"/></clipPath></defs></svg>