<svg width="16" height="19" viewBox="0 0 16 19" fill="none" xmlns="http://www.w3.org/2000/svg"><g clip-path="url(#clip0_156_114)"><path d="M8.003 5.233C5.732 5.233 3.9 7.136 3.9 9.496s1.832 4.264 4.103 4.264c2.272 0 4.104-1.903 4.104-4.264 0-2.36-1.832-4.263-4.104-4.263zm0 7.035c-1.468 0-2.668-1.243-2.668-2.772 0-1.528 1.197-2.772 2.668-2.772 1.472 0 2.668 1.244 2.668 2.772 0 1.53-1.2 2.772-2.668 2.772zm5.229-7.21c0 .553-.429.995-.957.995-.532 0-.957-.446-.957-.995 0-.55.428-.994.957-.994.528 0 .957.445.957.994zm2.718 1.01c-.061-1.333-.354-2.513-1.293-3.485-.936-.972-2.072-1.277-3.354-1.343-1.321-.078-5.282-.078-6.603 0-1.279.063-2.415.367-3.354 1.34C.406 3.551.118 4.731.053 6.063c-.075 1.373-.075 5.488 0 6.861.061 1.333.354 2.513 1.293 3.485.94.972 2.072 1.276 3.354 1.343 1.321.078 5.282.078 6.603 0 1.282-.063 2.418-.367 3.354-1.343.936-.972 1.229-2.152 1.293-3.485.075-1.373.075-5.484 0-6.857zm-1.707 8.33a2.756 2.756 0 01-1.522 1.581c-1.053.435-3.553.334-4.718.334-1.164 0-3.668.097-4.718-.334-.7-.289-1.239-.85-1.521-1.58-.418-1.095-.321-3.693-.321-4.903 0-1.21-.093-3.81.321-4.902a2.756 2.756 0 011.521-1.58c1.054-.435 3.554-.335 4.718-.335 1.165 0 3.668-.096 4.718.334.7.29 1.24.85 1.522 1.581.418 1.095.321 3.693.321 4.902 0 1.21.097 3.812-.321 4.903z" fill="#0C0C0C"/></g><defs><clipPath id="clip0_156_114"><path fill="#fff" d="M0 0h16v19H0z"/></clipPath></defs></svg>