<svg xmlns="http://www.w3.org/2000/svg" width="1024" height="1024" viewBox="0 0 1024 1024"><path d="M898.4 579.872v252.672c0 17.664-9.984 31.968-31.936 31.968-5.312 0-18.464-11.328-34.624-28.384V157.92c16.16-17.056 29.312-28.384 34.624-28.384 23.936 0 31.936 14.304 31.936 31.936v259.072c43.296 1.216 83.616 36.32 83.616 79.648 0 43.36-40.32 78.464-83.616 79.68zm-513.92 61.6c1.984 0 0-288.928 0-288.928 219.424 0 349.504-96.32 418.048-162.368V803.84c-68.544-66.016-198.624-162.368-418.048-162.368zM256.672 894.464L192.768 640.8h-63.936s-19.008-43.136-27.648-95.872H64.896c-17.632 0-31.936-14.304-31.936-31.968v-31.936c0-17.664 14.304-31.968 31.936-31.968h36.288c8.672-52.736 27.648-95.84 27.648-95.84h223.68V640.8h-63.904l8.064 31.936h31.904l15.968 63.936h-31.808l39.776 157.792h-95.84z"/></svg>